<?xml version="1.0" encoding="UTF-8"?>
<!DOCTYPE svg PUBLIC "-//W3C//DTD SVG 1.1//EN" "http://www.w3.org/Graphics/SVG/1.1/DTD/svg11.dtd">
<!-- Creator: CorelDRAW X6 -->
<svg xmlns="http://www.w3.org/2000/svg" xml:space="preserve" width="254px" height="254px" version="1.1" style="shape-rendering:geometricPrecision; text-rendering:geometricPrecision; image-rendering:optimizeQuality; fill-rule:evenodd; clip-rule:evenodd"
viewBox="0 0 254 254"
 xmlns:xlink="http://www.w3.org/1999/xlink">
 <defs>
  <style type="text/css">
   <![CDATA[
    .fil0 {fill:#51A8B1}
   ]]>
  </style>
 </defs>
 <g id="Camada_x0020_1">
  <metadata id="CorelCorpID_0Corel-Layer"/>
  <path class="fil0" d="M197 148l-141 0c-2,0 -4,1 -5,3 -1,2 -1,4 0,6 1,2 3,3 5,3l141 0c26,0 47,21 47,47 0,26 -21,47 -47,47l-187 0c3,-23 23,-41 47,-41l141 0c3,0 6,-3 6,-6 0,-3 -3,-6 -6,-6l-141 0c-17,0 -32,-9 -41,-24 -8,-15 -8,-33 0,-47 8,-15 24,-24 41,-24l141 0c3,0 6,-3 6,-6 0,-3 -3,-6 -6,-6l-141 0c-17,0 -32,-9 -41,-24 -8,-15 -8,-33 0,-47 8,-15 24,-24 41,-24l135 0 53 25c1,7 -2,13 -8,17l-180 0c-2,0 -4,1 -5,3 -1,2 -1,4 0,6 1,2 3,3 5,3l141 0c26,0 47,21 47,47 0,26 -21,48 -47,48l-1 0zm6 -124c0,-3 -3,-6 -6,-6 -3,0 -6,3 -6,6 0,3 3,6 6,6 3,0 6,-3 6,-6z"/>
 </g>
</svg>
