<?xml version="1.0" encoding="UTF-8"?>
<!DOCTYPE svg PUBLIC "-//W3C//DTD SVG 1.1//EN" "http://www.w3.org/Graphics/SVG/1.1/DTD/svg11.dtd">
<!-- Creator: CorelDRAW X6 -->
<svg xmlns="http://www.w3.org/2000/svg" xml:space="preserve" width="260px" height="260px" version="1.1" style="shape-rendering:geometricPrecision; text-rendering:geometricPrecision; image-rendering:optimizeQuality; fill-rule:evenodd; clip-rule:evenodd"
viewBox="0 0 260 260"
 xmlns:xlink="http://www.w3.org/1999/xlink">
 <defs>
  <style type="text/css">
   <![CDATA[
    .fil1 {fill:#51A8B1}
    .fil0 {fill:#EEEEEE}
   ]]>
  </style>
 </defs>
 <g id="Camada_x0020_1">
  <metadata id="CorelCorpID_0Corel-Layer"/>
  <g id="_374029904">
   <circle class="fil0" cx="130" cy="130" r="127"/>
   <path class="fil1" d="M174 143l-88 0c-1,0 -2,1 -3,2 -1,1 -1,2 0,4 1,1 2,2 3,2l88 0c16,0 29,13 29,29 0,16 -13,29 -29,29l-117 0c2,-14 14,-26 29,-26l88 0c2,0 4,-2 4,-4 0,-2 -2,-4 -4,-4l-88 0c-11,0 -20,-6 -26,-15 -5,-9 -5,-21 0,-29 5,-9 15,-15 26,-15l88 0c2,0 4,-2 4,-4 0,-2 -2,-4 -4,-4l-88 0c-11,0 -20,-6 -26,-15 -5,-9 -5,-21 0,-29 5,-9 15,-15 26,-15l85 0 33 16c1,4 -1,8 -5,11l-113 0c-1,0 -2,1 -3,2 -1,1 -1,2 0,4 1,1 2,2 3,2l88 0c16,0 29,13 29,29 0,16 -13,30 -29,30l-1 0zm4 -77c0,-2 -2,-4 -4,-4 -2,0 -4,2 -4,4 0,2 2,4 4,4 2,0 4,-2 4,-4z"/>
  </g>
 </g>
</svg>
